<?xml version="1.0" encoding="UTF-8"?>
<svg id="Calque_1" xmlns="http://www.w3.org/2000/svg" version="1.1" viewBox="0 0 160 160">
  <!-- Generator: Adobe Illustrator 29.3.1, SVG Export Plug-In . SVG Version: 2.1.0 Build 151)  -->
  <defs>
    <style>
      .st0 {
        fill: #8baeff;
      }
    </style>
  </defs>
  <path class="st0" d="M153.3,121.2c0,8.3-6.7,15-15,15s-15-6.7-15-15,6.7-15,15-15,15,6.7,15,15"/>
  <path d="M6.7,79.9c-.8,60.6,57.6,57.5,57.6,57.5,0,0,33.3.3,42.6-24.6v-27.7l-16.1-.3s-11,1.1-11.9,11,0,32.5,0,32.5c0,0-15.9,3.1-27.5-1-20-7-16.9-51.5-16.9-51.5,0,0-.4-48.3,29.8-53.4h0S7.5,19.3,6.7,79.9"/>
  <circle class="st0" cx="89" cy="49.4" r="15"/>
</svg>