<?xml version="1.0" encoding="UTF-8"?>
<svg id="Calque_1" data-name="Calque 1" xmlns="http://www.w3.org/2000/svg" viewBox="0 0 1278.7 116.24">
  <defs>
    <style>
      .cls-1 {
        fill: #8baeff;
      }

      .cls-2 {
        stroke: #000;
        stroke-miterlimit: 10;
      }
    </style>
  </defs>
  <path class="cls-2" d="M.5,2.4h17.2s11.4,1.7,11.1,15.3c-.2,8.2,0,90.8,0,90.8h55.5v5.7H15.2S.2,114.8.5,98C.8,81.2.5,2.4.5,2.4Z"/>
  <g>
    <path d="M113.6,58.2C114.8,1.6,143.7.2,143.7.2c0,0-59.2-3.5-59.3,58.1,0,61.6,59.3,57.9,59.3,57.9,0,0-31.2-1.4-30.1-58h0Z"/>
    <path d="M143.7.2s33.2-.7,31.8,58.1-31.8,57.9-31.8,57.9c0,0,60,3,60.3-57.9S143.7.2,143.7.2Z"/>
  </g>
  <path d="M224.3,2.5v97.7s.9,13.7,12.4,14.1,16.7,0,16.7,0V17.7s.6-15.2-11-15.2h-18.1,0Z"/>
  <path d="M278.5,2.5h28.8v111.9h-16.7s-12.1-.7-12.1-13.4V2.5h0Z"/>
  <path d="M323.7,2.5s48.3-1.4,52.8,30.2c4.5,31.6-31.6,38.1-31.6,38.1,0,0,10.7,2,15.5,8.8s21.7,34.8,21.7,34.8h-16.9s-13.3.2-18.9-7.4-22.6-35.3-22.6-35.3c0,0,24.6,3.9,24-33s-24-36.1-24-36.1h0v-.1Z"/>
  <path d="M400.5,2.4h83.6v5.4h-53.9l-.3,48.6h36.7v5.4h-37v46.9h54.5v5.7h-68.6s-15.5,1.3-15-13.9,0-98,0-98h0v-.1Z"/>
  <path d="M672.7,2.7h31.1l49.4,111.3h-15.8s-14.1,3.4-21.2-11.9S672.7,2.7,672.7,2.7Z"/>
  <path d="M769.3,2.7v95.3s-2.8,16.4,15,16.3,68,0,68,0v-4.8l-55.1-.3.6-95.2s-1.4-11-10.7-11.3-17.8,0-17.8,0h0Z"/>
  <path d="M868.1,2.7v95.3s-2.8,16.4,15,16.3h68v-4.8l-55.1-.3.6-95.2s-1.4-11-10.7-11.3-17.8,0-17.8,0h0Z"/>
  <path d="M965.5,2.5h83.6v5.4h-53.9l-.3,48.6h36.7v5.4h-37v46.9h54.5v5.7h-68.6s-15.5,1.3-15-13.9,0-98,0-98h0v-.1Z"/>
  <path d="M1066.8,2.6h28.8v111.9h-16.7s-12.1-.7-12.1-13.4V2.6h0Z"/>
  <path d="M1112,2.6s48.3-1.4,52.8,30.2c4.5,31.6-31.6,38.1-31.6,38.1,0,0,10.7,2,15.5,8.8s21.7,34.8,21.7,34.8h-16.9s-13.3.2-18.9-7.4c-5.7-7.6-22.6-35.3-22.6-35.3,0,0,24.6,3.9,24-33-.6-37-24-36.1-24-36.1h0v-.1Z"/>
  <path d="M1173.3,2.6l42.3,66.9v30.5s-1.1,14.4,14.7,14.5,14.4,0,14.4,0v-47l-35.7-54.8s-3.3-10.1-16.5-10.1h-19.2Z"/>
  <circle class="cls-1" cx="1263.7" cy="15" r="15"/>
  <circle class="cls-1" cx="657.6" cy="99.4" r="15"/>
  <circle class="cls-1" cx="143.3" cy="59.6" r="15"/>
  <path d="M525.9,58.1c-.8,60.6,57.6,57.5,57.6,57.5,0,0,33.3.3,42.6-24.6v-27.7l-16.1-.3s-11,1.1-11.9,11,0,32.5,0,32.5c0,0-15.9,3.1-27.5-1-20-7-15.9-51.5-15.9-51.5,0,0-1.4-48.3,28.8-53.4h0s-56.7-3.3-57.6,57.4"/>
  <circle class="cls-1" cx="608.1" cy="27.7" r="15"/>
</svg>